# xmcd
#
# Track frame offsets:
#	150
#	107934
#	148512
#	201793
#	247046
#	264004
#	285582
#
# Disc length: 4162 seconds
#
# Revision: 1
# Processed by: cddbd v1.5.2PL0 Copyright (c) Steve Scherf et al.
# Submitted via: audiograbber 1.83.01
#
DISCID=63104007
DTITLE=Grateful Dead - 69-04-13 Ballroom, Uni of Colorado, Boulder CO
DYEAR=1900
DGENRE=
TTITLE0=Dark Star
TTITLE1=St Stephen
TTITLE2=The Eleven
TTITLE3=Death Don't Have No Mercy
TTITLE4=Alligator
TTITLE5=Drums
TTITLE6=Jam
EXTD=
EXTT0=
EXTT1=
EXTT2=
EXTT3=
EXTT4=
EXTT5=
EXTT6=
PLAYORDER=
